# Blender 4.1.0
# www.blender.org
mtllib football.mtl
o blunted_Ikosaeder
v 35.300568 16.666666 -46.816948
v 30.150284 8.333333 -43.633900
v 30.150284 25.000000 -50.000000
v 19.849718 8.333333 -43.633900
v 19.849718 25.000000 -50.000000
v 14.699434 16.666666 -46.816948
v 43.633900 19.849718 -41.666668
v 46.816952 14.699434 -33.333336
v 41.666668 6.366100 -30.150284
v 33.333336 3.183050 -35.300568
v 35.300568 33.333336 -46.816948
v 14.699434 33.333336 -46.816948
v 30.150284 41.666668 -43.633900
v 19.849718 41.666668 -43.633900
v 43.633900 30.150284 -41.666668
v 46.816952 35.300568 -33.333336
v 50.000000 30.150284 -25.000000
v 50.000000 19.849718 -25.000000
v 33.333336 46.816952 -35.300568
v 41.666668 43.633900 -30.150284
v 25.000000 0.000000 -30.150284
v 25.000000 0.000000 -19.849718
v 16.666666 3.183050 -35.300568
v 16.666666 3.183050 -14.699434
v 8.333333 6.366100 -30.150284
v 8.333333 6.366100 -19.849718
v 41.666668 6.366100 -19.849718
v 33.333336 3.183050 -14.699434
v 3.183050 14.699434 -16.666668
v 6.366100 19.849718 -8.333334
v 14.699434 16.666666 -3.183050
v 19.849718 8.333333 -6.366100
v 3.183050 14.699434 -33.333336
v 6.366100 19.849718 -41.666668
v 46.816952 14.699434 -16.666668
v 43.633900 19.849718 -8.333334
v 35.300568 16.666666 -3.183050
v 30.150284 8.333333 -6.366100
v 19.849718 25.000000 -0.000000
v 30.150284 25.000000 -0.000000
v 3.183050 35.300568 -16.666668
v 0.000000 30.150284 -25.000000
v 6.366100 30.150284 -8.333334
v 0.000000 19.849718 -25.000000
v 6.366100 30.150284 -41.666668
v 3.183050 35.300568 -33.333336
v 43.633900 30.150284 -8.333334
v 46.816952 35.300568 -16.666668
v 30.150284 25.000000 -0.000000
v 35.300568 33.333336 -3.183050
v 19.849718 25.000000 -0.000000
v 30.150284 41.666668 -6.366100
v 14.699434 33.333336 -3.183050
v 19.849718 41.666668 -6.366100
v 8.333333 43.633900 -19.849718
v 16.666666 46.816952 -14.699434
v 8.333333 43.633900 -30.150284
v 16.666666 46.816952 -35.300568
v 41.666668 43.633900 -19.849718
v 33.333336 46.816952 -14.699434
v 25.000000 50.000000 -30.150284
v 25.000000 50.000000 -19.849718
v 19.849718 25.000000 -0.000000
v 30.150284 25.000000 -0.000000
vn 0.3926 -0.3491 -0.8509
vn 0.2157 -0.6352 -0.7416
vn 0.1768 -0.0000 -0.9842
vn -0.2157 -0.6352 -0.7416
vn -0.1768 -0.0000 -0.9842
vn -0.3926 -0.3491 -0.8509
vn 0.7416 -0.2157 -0.6352
vn 0.8509 -0.3926 -0.3491
vn 0.6352 -0.7416 -0.2157
vn 0.3491 -0.8509 -0.3926
vn 0.3926 0.3491 -0.8509
vn -0.3926 0.3491 -0.8509
vn 0.2157 0.6352 -0.7416
vn -0.2157 0.6352 -0.7416
vn 0.7416 0.2157 -0.6352
vn 0.8509 0.3926 -0.3491
vn 0.9842 0.1768 -0.0000
vn 0.9842 -0.1768 -0.0000
vn 0.3491 0.8509 -0.3926
vn 0.6352 0.7416 -0.2157
vn -0.0000 -0.9842 -0.1768
vn -0.0000 -0.9842 0.1768
vn -0.3491 -0.8509 -0.3926
vn -0.3491 -0.8509 0.3926
vn -0.6352 -0.7416 -0.2157
vn -0.6352 -0.7416 0.2157
vn 0.6352 -0.7416 0.2157
vn 0.3491 -0.8509 0.3926
vn -0.8509 -0.3926 0.3491
vn -0.7416 -0.2157 0.6352
vn -0.3926 -0.3491 0.8509
vn -0.2157 -0.6352 0.7416
vn -0.8509 -0.3926 -0.3491
vn -0.7416 -0.2157 -0.6352
vn 0.8509 -0.3926 0.3491
vn 0.7416 -0.2157 0.6352
vn 0.3926 -0.3491 0.8509
vn 0.2157 -0.6352 0.7416
vn -0.0000 -0.3568 0.9342
vn -0.8509 0.3926 0.3491
vn -0.9842 0.1768 -0.0000
vn -0.7416 0.2157 0.6352
vn -0.9842 -0.1768 -0.0000
vn -0.7416 0.2157 -0.6352
vn -0.8509 0.3926 -0.3491
vn 0.7416 0.2157 0.6352
vn 0.8509 0.3926 0.3491
vn -0.0000 0.3568 0.9342
vn 0.3926 0.3491 0.8509
vn 0.2157 0.6352 0.7416
vn -0.3926 0.3491 0.8509
vn -0.2157 0.6352 0.7416
vn -0.6352 0.7416 0.2157
vn -0.3491 0.8509 0.3926
vn -0.6352 0.7416 -0.2157
vn -0.3491 0.8509 -0.3926
vn 0.6352 0.7416 0.2157
vn 0.3491 0.8509 0.3926
vn -0.0000 0.9842 -0.1768
vn -0.0000 0.9842 0.1768
vn -0.5257 -0.0000 0.8507
vn 0.5257 -0.0000 0.8507
s 1
f 1//1 2//2 3//3
f 3//3 2//2 4//4
f 3//3 4//4 5//5
f 5//5 4//4 6//6
f 7//7 8//8 1//1
f 1//1 8//8 9//9
f 1//1 9//9 2//2
f 2//2 9//9 10//10
f 3//3 5//5 11//11
f 11//11 5//5 12//12
f 11//11 12//12 13//13
f 13//13 12//12 14//14
f 15//15 16//16 7//7
f 7//7 16//16 17//17
f 7//7 17//17 8//8
f 8//8 17//17 18//18
f 19//19 20//20 13//13
f 13//13 20//20 16//16
f 13//13 16//16 11//11
f 11//11 16//16 15//15
f 21//21 22//22 23//23
f 23//23 22//22 24//24
f 23//23 24//24 25//25
f 25//25 24//24 26//26
f 10//10 9//9 21//21
f 21//21 9//9 27//27
f 21//21 27//27 22//22
f 22//22 27//27 28//28
f 29//29 26//26 30//30
f 30//30 26//26 24//24
f 30//30 24//24 31//31
f 31//31 24//24 32//32
f 33//33 34//34 25//25
f 25//25 34//34 6//6
f 25//25 6//6 23//23
f 23//23 6//6 4//4
f 35//35 36//36 27//27
f 27//27 36//36 37//37
f 27//27 37//37 28//28
f 28//28 37//37 38//38
f 32//32 38//38 31//31
f 31//31 38//38 37//37
f 31//31 37//37 39//39
f 39//39 37//37 40//39
f 41//40 42//41 43//42
f 43//42 42//41 44//43
f 43//42 44//43 30//30
f 30//30 44//43 29//29
f 34//34 33//33 45//44
f 45//44 33//33 44//43
f 45//44 44//43 46//45
f 46//45 44//43 42//41
f 35//35 18//18 36//36
f 36//36 18//18 17//17
f 36//36 17//17 47//46
f 47//46 17//17 48//47
f 49//48 50//49 51//48
f 51//48 50//49 52//50
f 51//48 52//50 53//51
f 53//51 52//50 54//52
f 43//42 53//51 41//40
f 41//40 53//51 54//52
f 41//40 54//52 55//53
f 55//53 54//52 56//54
f 57//55 58//56 46//45
f 46//45 58//56 14//14
f 46//45 14//14 45//44
f 45//44 14//14 12//12
f 48//47 59//57 47//46
f 47//46 59//57 60//58
f 47//46 60//58 50//49
f 50//49 60//58 52//50
f 58//56 57//55 61//59
f 61//59 57//55 55//53
f 61//59 55//53 62//60
f 62//60 55//53 56//54
f 61//59 62//60 19//19
f 19//19 62//60 60//58
f 19//19 60//58 20//20
f 20//20 60//58 59//57
f 59//57 48//47 20//20
f 20//20 48//47 17//17
f 20//20 17//17 16//16
f 3//3 11//11 1//1
f 1//1 11//11 15//15
f 1//1 15//15 7//7
f 54//52 52//50 56//54
f 56//54 52//50 60//58
f 56//54 60//58 62//60
f 43//42 30//30 53//51
f 53//51 30//30 31//31
f 53//51 31//31 63//61
f 27//27 9//9 35//35
f 35//35 9//9 8//8
f 35//35 8//8 18//18
f 58//56 61//59 14//14
f 14//14 61//59 19//19
f 14//14 19//19 13//13
f 34//34 45//44 6//6
f 6//6 45//44 12//12
f 6//6 12//12 5//5
f 21//21 23//23 10//10
f 10//10 23//23 4//4
f 10//10 4//4 2//2
f 64//62 37//37 50//49
f 50//49 37//37 36//36
f 50//49 36//36 47//46
f 57//55 46//45 55//53
f 55//53 46//45 42//41
f 55//53 42//41 41//40
f 29//29 44//43 26//26
f 26//26 44//43 33//33
f 26//26 33//33 25//25
f 32//32 24//24 38//38
f 38//38 24//24 22//22
f 38//38 22//22 28//28
